External Loads File
version=1
nRows=70
nColumns=13
Range=5.000000e-03-10 seconds
endheader
time 	forceRightX 	forceRightY 	forceRightZ 	pointRightX 	pointRightY 	pointRightZ 	forceLeftX 	forceLeftY 	forceLeftZ 	pointLeftX 	pointLeftY 	pointLeftZ 		
0.005000 -13.778651 217.065644 -0.000000 0.393463 0.371392 -0.098109 36.489938 256.798871 -0.000000 0.082802 0.274116 -0.337404
0.010000 -13.730410 217.050633 -0.000000 0.393444 0.371453 -0.098113 36.027954 256.563567 -0.000000 0.082801 0.274081 -0.337403
0.015000 -13.624273 217.072593 -0.000000 0.393433 0.371488 -0.098109 35.608523 256.358387 -0.000000 0.082804 0.274042 -0.337416
0.020000 -13.489661 217.147934 -0.000000 0.393415 0.371564 -0.098113 35.184328 256.198847 -0.000000 0.082808 0.273991 -0.337403
0.025000 -13.437841 217.265337 -0.000000 0.393434 0.371973 -0.098238 34.698304 256.116187 -0.000000 0.082687 0.274005 -0.337496
0.030000 -13.172812 217.425968 -0.000000 0.393428 0.371999 -0.098249 34.615410 256.069869 -0.000000 0.082649 0.273975 -0.337491
0.035000 -12.999443 217.593542 -0.000000 0.393411 0.372089 -0.098242 34.620607 256.091816 -0.000000 0.082661 0.273928 -0.337495
0.040000 -12.889512 217.759205 -0.000000 0.393399 0.372166 -0.098247 34.682877 256.135850 -0.000000 0.082674 0.273856 -0.337494
0.045000 -12.858909 217.918971 -0.000000 0.393381 0.372256 -0.098242 34.692588 256.160672 -0.000000 0.082675 0.273785 -0.337498
0.050000 -12.897031 218.072887 -0.000000 0.393358 0.372337 -0.098241 34.627872 256.148276 -0.000000 0.082680 0.273707 -0.337482
0.055000 -12.996247 218.218322 -0.000000 0.393337 0.372416 -0.098243 34.513264 256.116751 -0.000000 0.082705 0.273616 -0.337486
0.060000 -13.129454 218.350529 -0.000000 0.393319 0.372507 -0.098231 34.392297 256.094387 -0.000000 0.082719 0.273511 -0.337484
0.065000 -13.205957 218.463847 -0.000000 0.393305 0.372585 -0.098228 34.353379 256.085976 -0.000000 0.082734 0.273460 -0.337469
0.070000 -13.277305 218.540580 -0.000000 0.393283 0.372674 -0.098226 34.284668 256.094575 -0.000000 0.082752 0.273377 -0.337480
0.075000 -13.258972 218.576373 -0.000000 0.393258 0.372737 -0.098230 34.211487 256.079679 -0.000000 0.082755 0.273336 -0.337486
0.080000 -13.245018 218.563003 -0.000000 0.393260 0.372832 -0.098239 33.981883 256.021023 -0.000000 0.082751 0.273281 -0.337484
0.085000 -13.255773 218.495718 -0.000000 0.393273 0.372905 -0.098238 33.623390 255.905589 -0.000000 0.082768 0.273208 -0.337482
0.090000 -13.289408 218.369861 -0.000000 0.393277 0.372952 -0.098248 33.263978 255.748166 -0.000000 0.082756 0.273173 -0.337493
0.095000 -13.390290 218.186425 -0.000000 0.393277 0.373000 -0.098250 32.936895 255.578690 -0.000000 0.082756 0.273158 -0.337495
0.100000 -13.530292 217.966913 -0.000000 0.393283 0.373031 -0.098250 32.627972 255.394326 -0.000000 0.082758 0.273118 -0.337479
0.105000 -13.623837 217.750588 -0.000000 0.393293 0.373058 -0.098256 32.315949 255.169286 -0.000000 0.082758 0.273096 -0.337492
0.110000 -13.644316 217.572982 -0.000000 0.393303 0.373099 -0.098252 31.978353 254.908184 -0.000000 0.082752 0.273070 -0.337489
0.115000 -13.567513 217.453473 -0.000000 0.393302 0.373134 -0.098257 31.711194 254.650887 -0.000000 0.082762 0.273050 -0.337493
0.120000 -13.403785 217.392545 -0.000000 0.393310 0.373150 -0.098263 31.614692 254.450328 -0.000000 0.082756 0.273007 -0.337482
0.125000 -13.185610 217.383225 -0.000000 0.393302 0.373184 -0.098258 31.714496 254.338723 -0.000000 0.082763 0.272970 -0.337478
0.130000 -12.905445 217.421948 -0.000000 0.393306 0.373219 -0.098259 32.001163 254.309500 -0.000000 0.082760 0.272942 -0.337484
0.135000 -12.617380 217.501200 -0.000000 0.393297 0.373258 -0.098263 32.331995 254.341554 -0.000000 0.082766 0.272891 -0.337480
0.140000 -12.319650 217.610558 -0.000000 0.393294 0.373290 -0.098265 32.641066 254.404412 -0.000000 0.082785 0.272853 -0.337484
0.145000 -12.097127 217.729257 -0.000000 0.393284 0.373372 -0.098272 32.848456 254.506599 -0.000000 0.082796 0.272806 -0.337477
0.150000 -11.913728 217.849020 -0.000000 0.393274 0.373422 -0.098254 33.091225 254.664601 -0.000000 0.082816 0.272762 -0.337466
0.155000 -11.778633 217.968614 -0.000000 0.393271 0.373467 -0.098242 33.425182 254.887410 -0.000000 0.082827 0.272726 -0.337479
0.160000 -11.703329 218.087678 -0.000000 0.393264 0.373506 -0.098257 33.788288 255.136831 -0.000000 0.082841 0.272657 -0.337477
0.165000 -11.630162 218.201221 -0.000000 0.393264 0.373556 -0.098247 34.124527 255.333388 -0.000000 0.082871 0.272628 -0.337482
0.170000 -11.591464 218.289705 -0.000000 0.393242 0.373607 -0.098251 34.318843 255.428163 -0.000000 0.082892 0.272571 -0.337478
0.175000 -11.552696 218.336479 -0.000000 0.393246 0.373635 -0.098231 34.431064 255.410298 -0.000000 0.082907 0.272508 -0.337497
0.180000 -11.544295 218.331709 -0.000000 0.393230 0.373701 -0.098229 34.488492 255.321451 -0.000000 0.082930 0.272462 -0.337505
0.185000 -11.493109 218.281574 -0.000000 0.393239 0.373730 -0.098240 34.620535 255.198999 -0.000000 0.082956 0.272424 -0.337501
0.190000 -11.440887 218.188478 -0.000000 0.393240 0.373778 -0.098239 34.781348 255.084387 -0.000000 0.082990 0.272376 -0.337504
0.195000 -11.374804 218.052570 -0.000000 0.393246 0.373821 -0.098242 34.947780 254.982181 -0.000000 0.083015 0.272324 -0.337512
0.200000 -11.337478 217.862292 -0.000000 0.393249 0.373870 -0.098230 35.001562 254.873183 -0.000000 0.083036 0.272262 -0.337513
0.205000 -11.355132 217.601788 -0.000000 0.393244 0.373926 -0.098235 34.845440 254.721752 -0.000000 0.083068 0.272192 -0.337512
0.210000 -11.393569 217.267148 -0.000000 0.393252 0.373966 -0.098238 34.512695 254.508912 -0.000000 0.083096 0.272139 -0.337516
0.215000 -11.493577 216.870258 -0.000000 0.393249 0.374036 -0.098238 34.042583 254.270717 -0.000000 0.083113 0.272073 -0.337511
0.220000 -11.616767 216.439976 -0.000000 0.393254 0.374092 -0.098250 33.599743 254.040778 -0.000000 0.083138 0.272002 -0.337509
0.225000 -11.748171 216.005470 -0.000000 0.393249 0.374143 -0.098270 33.242679 253.826400 -0.000000 0.083158 0.271953 -0.337508
0.230000 -11.886810 215.597163 -0.000000 0.393245 0.374204 -0.098269 32.906609 253.607172 -0.000000 0.083168 0.271895 -0.337494
0.235000 -11.960379 215.254861 -0.000000 0.393239 0.374260 -0.098282 32.588966 253.357708 -0.000000 0.083183 0.271847 -0.337497
0.240000 -11.906299 215.020241 -0.000000 0.393234 0.374320 -0.098279 32.345509 253.091619 -0.000000 0.083185 0.271812 -0.337508
0.245000 -11.710624 214.924864 -0.000000 0.393238 0.374391 -0.098295 32.253606 252.859694 -0.000000 0.083199 0.271765 -0.337507
0.250000 -11.345755 214.978884 -0.000000 0.393226 0.374437 -0.098299 32.437816 252.703826 -0.000000 0.083196 0.271724 -0.337497
0.255000 -10.900865 215.153879 -0.000000 0.393223 0.374492 -0.098306 32.867624 252.649495 -0.000000 0.083199 0.271685 -0.337493
0.260000 -10.476309 215.395976 -0.000000 0.393209 0.374556 -0.098319 33.434352 252.685647 -0.000000 0.083199 0.271636 -0.337482
0.265000 -10.138916 215.650736 -0.000000 0.393208 0.374623 -0.098314 33.986636 252.773177 -0.000000 0.083204 0.271579 -0.337469
0.270000 -9.910634 215.879999 -0.000000 0.393193 0.374698 -0.098321 34.411997 252.872017 -0.000000 0.083191 0.271540 -0.337465
0.275000 -9.805345 216.058662 -0.000000 0.393187 0.374755 -0.098323 34.680850 252.964355 -0.000000 0.083195 0.271504 -0.337466
0.280000 -9.853709 216.169268 -0.000000 0.393183 0.374813 -0.098333 34.809496 253.050911 -0.000000 0.083178 0.271450 -0.337464
0.285000 -10.058284 216.203699 -0.000000 0.393183 0.374877 -0.098333 34.835232 253.127112 -0.000000 0.083183 0.271393 -0.337459
0.290000 -10.392515 216.162510 -0.000000 0.393169 0.374962 -0.098333 34.772242 253.175521 -0.000000 0.083179 0.271349 -0.337462
0.295000 -10.788243 216.057419 -0.000000 0.393162 0.375025 -0.098329 34.650817 253.176047 -0.000000 0.083183 0.271289 -0.337471
0.300000 -11.198066 215.908334 -0.000000 0.393163 0.375111 -0.098333 34.498232 253.136375 -0.000000 0.083185 0.271190 -0.337471
0.305000 -11.459118 215.743374 -0.000000 0.393146 0.375173 -0.098316 34.507473 253.068752 -0.000000 0.083202 0.271134 -0.337449
0.310000 -11.543864 215.576738 -0.000000 0.393149 0.375239 -0.098329 34.702467 253.006229 -0.000000 0.083206 0.271071 -0.337435
0.315000 -11.451491 215.408838 -0.000000 0.393128 0.375314 -0.098315 35.044862 252.964214 -0.000000 0.083237 0.271007 -0.337425
0.320000 -11.238849 215.230913 -0.000000 0.393114 0.375413 -0.098322 35.399624 252.935384 -0.000000 0.083252 0.270907 -0.337434
0.325000 -10.935520 215.041377 -0.000000 0.393103 0.375504 -0.098331 35.642667 252.877783 -0.000000 0.083284 0.270823 -0.337425
0.330000 -10.633964 214.842426 -0.000000 0.393092 0.375584 -0.098332 35.619855 252.755493 -0.000000 0.083314 0.270729 -0.337424
0.335000 -10.386632 214.638206 -0.000000 0.393069 0.375665 -0.098336 35.341359 252.558987 -0.000000 0.083346 0.270657 -0.337425
0.340000 -10.241987 214.428371 -0.000000 0.393052 0.375767 -0.098324 34.897608 252.316676 -0.000000 0.083369 0.270580 -0.337426
0.345000 -10.177583 214.209119 -0.000000 0.393039 0.375831 -0.098338 34.411518 252.050188 -0.000000 0.083408 0.270477 -0.337427
0.350000 -10.176436 213.971020 -0.000000 0.393028 0.375919 -0.098330 33.884308 251.759949 -0.000000 0.083442 0.270381 -0.337429
